<svg width="664" height="145" viewBox="0 0 664 145" fill="none" xmlns="http://www.w3.org/2000/svg">
<path d="M201.798 145C194.587 145 188.208 143.527 182.66 140.582C177.156 137.593 172.846 133.431 169.731 128.095C166.616 122.716 165.059 116.398 165.059 109.14V50.9321L178.628 50.8681V108.436C178.628 112.363 179.289 115.821 180.612 118.81C181.935 121.798 183.706 124.295 185.925 126.302C188.144 128.308 190.618 129.824 193.349 130.848C196.123 131.873 198.939 132.385 201.798 132.385C204.7 132.385 207.516 131.873 210.247 130.848C213.02 129.781 215.517 128.244 217.736 126.238C219.954 124.231 221.704 121.734 222.984 118.746C224.307 115.757 224.968 112.321 224.968 108.436V50.8681H238.537V109.14C238.537 116.355 236.98 122.652 233.865 128.031C230.75 133.41 226.419 137.593 220.872 140.582C215.367 143.527 209.009 145 201.798 145Z" fill="url(#paint0_linear_421_8)"/>
<path d="M304.958 143.079V109.076C304.958 106.387 304.723 103.633 304.254 100.816C303.827 97.9554 302.974 95.3086 301.694 92.8752C300.456 90.4419 298.686 88.4781 296.381 86.984C294.12 85.4898 291.154 84.7427 287.485 84.7427C285.095 84.7427 282.833 85.1483 280.7 85.9594C278.566 86.7278 276.689 87.9872 275.068 89.7375C273.489 91.4878 272.23 93.7931 271.291 96.6533C270.395 99.5136 269.947 102.993 269.947 107.091L261.626 103.953C261.626 97.6779 262.8 92.1495 265.147 87.3682C267.493 82.5442 270.864 78.7875 275.259 76.098C279.655 73.4085 284.967 72.0637 291.197 72.0637C295.976 72.0637 299.987 72.8322 303.23 74.369C306.473 75.9059 309.097 77.9337 311.103 80.4524C313.151 82.9284 314.708 85.6392 315.775 88.5849C316.842 91.5305 317.567 94.4121 317.951 97.2296C318.335 100.047 318.527 102.523 318.527 104.658V143.079H304.958ZM256.378 143.079V73.9208H268.347V93.8998H269.947V143.079H256.378Z" fill="url(#paint1_linear_421_8)"/>
<path d="M336.479 62.5865V49.5874H349.856V62.5865H336.479ZM336.479 143.079V73.9208H349.856V143.079H336.479Z" fill="url(#paint2_linear_421_8)"/>
<path d="M369.077 143.079V50.8681H381.174L414.585 120.218L447.804 50.8681H460.029V143.015H447.356V79.9401L417.593 143.079H411.512L381.686 79.9401V143.079H369.077Z" fill="url(#paint3_linear_421_8)"/>
<path d="M497.483 145C492.362 145 488.074 144.061 484.618 142.182C481.161 140.261 478.537 137.743 476.745 134.626C474.996 131.467 474.121 128.009 474.121 124.253C474.121 120.752 474.74 117.678 475.977 115.031C477.214 112.385 479.049 110.143 481.481 108.308C483.914 106.429 486.901 104.914 490.442 103.761C493.515 102.865 496.992 102.075 500.875 101.392C504.758 100.709 508.833 100.069 513.1 99.4709C517.41 98.8732 521.677 98.2756 525.901 97.6779L521.037 100.367C521.122 94.9457 519.97 90.9328 517.581 88.3287C515.234 85.6819 511.18 84.3585 505.42 84.3585C501.793 84.3585 498.464 85.2123 495.435 86.92C492.405 88.5849 490.293 91.3597 489.098 95.2445L476.617 91.4024C478.324 85.4685 481.567 80.7512 486.346 77.2506C491.168 73.75 497.568 71.9997 505.548 71.9997C511.735 71.9997 517.111 73.067 521.677 75.2015C526.285 77.2933 529.656 80.6231 531.79 85.191C532.899 87.4536 533.582 89.8442 533.838 92.363C534.094 94.8817 534.222 97.5925 534.222 100.495V143.079H522.381V127.262L524.685 129.311C521.826 134.605 518.178 138.554 513.74 141.158C509.345 143.719 503.926 145 497.483 145ZM499.851 134.05C503.649 134.05 506.913 133.388 509.644 132.065C512.375 130.699 514.572 128.97 516.237 126.878C517.901 124.786 518.989 122.609 519.501 120.346C520.226 118.297 520.632 115.992 520.717 113.431C520.845 110.869 520.909 108.82 520.909 107.283L525.261 108.884C521.037 109.524 517.197 110.101 513.74 110.613C510.284 111.125 507.148 111.638 504.331 112.15C501.558 112.619 499.083 113.196 496.907 113.879C495.072 114.519 493.429 115.288 491.978 116.184C490.57 117.081 489.44 118.169 488.586 119.45C487.775 120.731 487.37 122.289 487.37 124.124C487.37 125.917 487.818 127.582 488.714 129.119C489.61 130.613 490.976 131.809 492.81 132.705C494.645 133.602 496.992 134.05 499.851 134.05Z" fill="url(#paint4_linear_421_8)"/>
<path d="M590.398 143.079C586.046 143.933 581.779 144.296 577.597 144.168C573.415 144.039 569.681 143.228 566.396 141.734C563.11 140.24 560.635 137.892 558.971 134.69C557.478 131.83 556.667 128.927 556.539 125.982C556.454 122.993 556.411 119.621 556.411 115.864V54.7102H569.852V115.224C569.852 117.998 569.873 120.41 569.916 122.46C570.001 124.509 570.45 126.238 571.26 127.646C572.796 130.293 575.229 131.809 578.557 132.193C581.928 132.534 585.875 132.385 590.398 131.745V143.079ZM543.162 84.6787V73.9208H590.398V84.6787H543.162Z" fill="url(#paint5_linear_421_8)"/>
<path d="M632.506 145C625.636 145 619.598 143.506 614.392 140.518C609.229 137.487 605.197 133.282 602.295 127.903C599.436 122.481 598.007 116.205 598.007 109.076C598.007 101.52 599.415 94.9671 602.231 89.4173C605.09 83.8676 609.058 79.5772 614.136 76.5462C619.214 73.5152 625.124 71.9997 631.866 71.9997C638.906 71.9997 644.901 73.6433 649.851 76.9304C654.801 80.1749 658.492 84.8068 660.924 90.8261C663.399 96.8454 664.38 103.996 663.868 112.278H650.491V107.411C650.406 99.3855 648.87 93.4516 645.883 89.6094C642.938 85.7673 638.437 83.8463 632.378 83.8463C625.678 83.8463 620.643 85.9594 617.272 90.1858C613.901 94.4121 612.216 100.517 612.216 108.5C612.216 116.099 613.901 121.99 617.272 126.174C620.643 130.315 625.508 132.385 631.866 132.385C636.047 132.385 639.653 131.446 642.682 129.567C645.755 127.646 648.144 124.914 649.851 121.371L662.972 125.533C660.284 131.723 656.209 136.526 650.747 139.941C645.285 143.314 639.205 145 632.506 145ZM607.863 112.278V101.84H657.212V112.278H607.863Z" fill="url(#paint6_linear_421_8)"/>
<path d="M123.338 92.3872L118.628 98.0541L95.2081 79.6821L99.9176 74.0204L123.338 92.3872Z" fill="url(#paint7_linear_421_8)"/>
<path fill-rule="evenodd" clip-rule="evenodd" d="M58.6098 45.0926C64.9448 45.0153 70.9745 48.2456 73.4562 53.7888C75.592 58.5565 74.1947 63.5059 69.8425 66.5393C66.551 68.8334 62.7918 69.9997 58.8773 70.8079C55.1329 71.5785 51.3311 71.8981 47.5063 72.0139C47.3344 72.0186 47.1648 72.0513 46.9125 72.0802C47.2862 73.6407 48.0142 74.9666 49.0891 76.1C51.2957 78.423 54.1315 79.0564 57.235 78.8828C63.7347 78.5183 69.637 75.1137 72.2454 73.7742L72.2503 73.7773L76.0781 80.0923C74.7838 80.7543 73.5624 81.4139 72.3107 82.015C68.1371 84.0233 63.8066 85.5903 59.1262 86.0695C54.2199 86.5728 49.5813 85.8415 45.5571 82.8105C39.9358 78.5755 39.1134 71.7999 39.1105 71.7754C39.0895 71.7726 32.8734 70.9048 32.8734 70.9048L34.4373 63.6894L38.9929 64.4421C38.9944 64.4266 39.8951 54.6925 48.4219 48.6001C51.4312 46.4475 54.8131 45.1385 58.6098 45.0926ZM65.4343 55.0582C63.074 52.6638 60.1818 51.8484 56.9197 52.6518C50.9095 54.1363 47.4445 59.9206 46.6908 64.6252C46.9708 64.6545 47.1914 64.7052 47.4126 64.7007L47.4131 64.6957C51.8377 64.5822 56.2115 64.1314 60.4555 62.8748C62.3012 62.3308 64.0847 61.6344 65.5959 60.4318C67.0249 59.296 67.2889 58.1491 66.4682 56.5393C66.1982 56.0106 65.8551 55.4844 65.4343 55.0582Z" fill="url(#paint8_linear_421_8)"/>
<path d="M131.551 74.7859L129.147 81.7148L100.748 72.2459L103.089 65.4465L131.551 74.7859Z" fill="url(#paint9_linear_421_8)"/>
<path d="M30.6805 59.4767L0.863313 62.545L0 55.2923L29.8149 52.2187L30.6805 59.4767Z" fill="url(#paint10_linear_421_8)"/>
<path d="M129.32 65.562C121.277 64.7014 111.757 63.7064 103.711 62.8756L104.457 55.6504C108.461 56.0839 130.039 58.3135 130.069 58.3166L129.32 65.562Z" fill="url(#paint11_linear_421_8)"/>
<path d="M31.8769 43.2747L30.0862 50.3483L1.00606 43.2176L2.79385 36.1463L31.8769 43.2747Z" fill="url(#paint12_linear_421_8)"/>
<path d="M88.2791 34.0038C91.8513 34.3972 94.3927 37.502 94.0125 41.0058L94.01 41.0056C93.6369 44.4648 90.4242 46.9509 86.8477 46.5495C83.302 46.1513 80.6671 42.9713 81.0489 39.5532C81.4422 36.0483 84.6248 33.6018 88.2791 34.0038Z" fill="url(#paint13_linear_421_8)"/>
<path d="M36.0589 34.3714C34.9318 36.5572 33.8526 38.6576 32.708 40.8869C25.0427 37.1233 17.419 33.3841 9.73139 29.6106C10.8649 27.4129 11.9464 25.3152 13.0838 23.1053C20.7347 26.8573 28.3389 30.5845 36.0589 34.3714Z" fill="url(#paint14_linear_421_8)"/>
<path d="M101.092 21.7394C101.682 21.0743 114.828 4.22984 131.064 15.0281C135.495 17.9758 138.315 21.9273 138.909 27.1877C140.238 38.9269 128.318 50.5209 128.29 50.5482L128.292 50.5511L122.788 45.5773C122.788 45.5773 129.26 38.5957 130.966 32.4162C132.431 27.1144 130.654 23.0983 125.653 20.3198C115.796 14.846 107.136 26.1654 106.791 26.5274C104.879 24.9217 103.02 23.3569 101.092 21.7394Z" fill="url(#paint15_linear_421_8)"/>
<path d="M50.3638 26.0881C54.0004 26.4607 56.5849 29.55 56.2109 33.0695L56.1918 33.2289C55.743 36.6151 52.623 38.9844 49.0565 38.6117C45.4772 38.2376 42.8881 35.1428 43.2451 31.6618C43.5989 28.188 46.7557 25.7161 50.3638 26.0881Z" fill="url(#paint16_linear_421_8)"/>
<path d="M53.2775 0.000869675C64.7902 -0.116356 67.6333 11.6558 67.6417 11.9037L67.6437 11.9089C65.2628 12.4297 62.8795 12.9478 60.5919 13.4456C59.4139 11.3231 57.8849 6.68925 52.2421 7.35704C50.1489 7.60608 48.2031 8.28794 46.4876 9.48181C42.2675 12.4183 42.9496 16.9536 43.6717 19.5164C41.3057 20.3203 38.9984 21.1078 36.6267 21.9163C35.7318 19.592 33.5383 10.7316 40.7545 4.56464C44.2955 1.53953 48.5298 0.0504646 53.2775 0.000869675Z" fill="url(#paint17_linear_421_8)"/>
<defs>
<linearGradient id="paint0_linear_421_8" x1="150.513" y1="-268.648" x2="641.77" y2="34.4584" gradientUnits="userSpaceOnUse">
<stop stop-color="#DED6F9"/>
<stop offset="1" stop-color="#5E3ADD"/>
</linearGradient>
<linearGradient id="paint1_linear_421_8" x1="150.513" y1="-268.648" x2="641.77" y2="34.4584" gradientUnits="userSpaceOnUse">
<stop stop-color="#DED6F9"/>
<stop offset="1" stop-color="#5E3ADD"/>
</linearGradient>
<linearGradient id="paint2_linear_421_8" x1="150.513" y1="-268.648" x2="641.77" y2="34.4584" gradientUnits="userSpaceOnUse">
<stop stop-color="#DED6F9"/>
<stop offset="1" stop-color="#5E3ADD"/>
</linearGradient>
<linearGradient id="paint3_linear_421_8" x1="150.513" y1="-268.648" x2="641.77" y2="34.4584" gradientUnits="userSpaceOnUse">
<stop stop-color="#DED6F9"/>
<stop offset="1" stop-color="#5E3ADD"/>
</linearGradient>
<linearGradient id="paint4_linear_421_8" x1="150.513" y1="-268.648" x2="641.77" y2="34.4584" gradientUnits="userSpaceOnUse">
<stop stop-color="#DED6F9"/>
<stop offset="1" stop-color="#5E3ADD"/>
</linearGradient>
<linearGradient id="paint5_linear_421_8" x1="150.513" y1="-268.648" x2="641.77" y2="34.4584" gradientUnits="userSpaceOnUse">
<stop stop-color="#DED6F9"/>
<stop offset="1" stop-color="#5E3ADD"/>
</linearGradient>
<linearGradient id="paint6_linear_421_8" x1="150.513" y1="-268.648" x2="641.77" y2="34.4584" gradientUnits="userSpaceOnUse">
<stop stop-color="#DED6F9"/>
<stop offset="1" stop-color="#5E3ADD"/>
</linearGradient>
<linearGradient id="paint7_linear_421_8" x1="150.513" y1="-268.648" x2="641.77" y2="34.4584" gradientUnits="userSpaceOnUse">
<stop stop-color="#DED6F9"/>
<stop offset="1" stop-color="#5E3ADD"/>
</linearGradient>
<linearGradient id="paint8_linear_421_8" x1="150.513" y1="-268.648" x2="641.77" y2="34.4584" gradientUnits="userSpaceOnUse">
<stop stop-color="#DED6F9"/>
<stop offset="1" stop-color="#5E3ADD"/>
</linearGradient>
<linearGradient id="paint9_linear_421_8" x1="150.513" y1="-268.648" x2="641.77" y2="34.4584" gradientUnits="userSpaceOnUse">
<stop stop-color="#DED6F9"/>
<stop offset="1" stop-color="#5E3ADD"/>
</linearGradient>
<linearGradient id="paint10_linear_421_8" x1="150.513" y1="-268.648" x2="641.77" y2="34.4584" gradientUnits="userSpaceOnUse">
<stop stop-color="#DED6F9"/>
<stop offset="1" stop-color="#5E3ADD"/>
</linearGradient>
<linearGradient id="paint11_linear_421_8" x1="150.513" y1="-268.648" x2="641.77" y2="34.4584" gradientUnits="userSpaceOnUse">
<stop stop-color="#DED6F9"/>
<stop offset="1" stop-color="#5E3ADD"/>
</linearGradient>
<linearGradient id="paint12_linear_421_8" x1="150.513" y1="-268.648" x2="641.77" y2="34.4584" gradientUnits="userSpaceOnUse">
<stop stop-color="#DED6F9"/>
<stop offset="1" stop-color="#5E3ADD"/>
</linearGradient>
<linearGradient id="paint13_linear_421_8" x1="150.513" y1="-268.648" x2="641.77" y2="34.4584" gradientUnits="userSpaceOnUse">
<stop stop-color="#DED6F9"/>
<stop offset="1" stop-color="#5E3ADD"/>
</linearGradient>
<linearGradient id="paint14_linear_421_8" x1="150.513" y1="-268.648" x2="641.77" y2="34.4584" gradientUnits="userSpaceOnUse">
<stop stop-color="#DED6F9"/>
<stop offset="1" stop-color="#5E3ADD"/>
</linearGradient>
<linearGradient id="paint15_linear_421_8" x1="150.513" y1="-268.648" x2="641.77" y2="34.4584" gradientUnits="userSpaceOnUse">
<stop stop-color="#DED6F9"/>
<stop offset="1" stop-color="#5E3ADD"/>
</linearGradient>
<linearGradient id="paint16_linear_421_8" x1="150.513" y1="-268.648" x2="641.77" y2="34.4584" gradientUnits="userSpaceOnUse">
<stop stop-color="#DED6F9"/>
<stop offset="1" stop-color="#5E3ADD"/>
</linearGradient>
<linearGradient id="paint17_linear_421_8" x1="150.513" y1="-268.648" x2="641.77" y2="34.4584" gradientUnits="userSpaceOnUse">
<stop stop-color="#DED6F9"/>
<stop offset="1" stop-color="#5E3ADD"/>
</linearGradient>
</defs>
</svg>
