<svg width="28" height="28" viewBox="0 0 28 28" fill="none" xmlns="http://www.w3.org/2000/svg">
<rect width="28" height="28" rx="5.64034" transform="matrix(-1 0 0 1 28 0)" fill="white"/>
<path d="M10.1742 5.66667C10.1742 5.48986 10.1031 5.32029 9.97651 5.19526C9.84992 5.07024 9.67823 5 9.49921 5C9.32019 5 9.1485 5.07024 9.02192 5.19526C8.89533 5.32029 8.82421 5.48986 8.82421 5.66667V7.07111C7.52821 7.17333 6.67861 7.424 6.05401 8.04178C5.42851 8.65867 5.17471 9.49867 5.07031 10.7778H22.9281C22.8237 9.49778 22.5699 8.65867 21.9444 8.04178C21.3198 7.424 20.4693 7.17333 19.1742 7.07022V5.66667C19.1742 5.48986 19.1031 5.32029 18.9765 5.19526C18.8499 5.07024 18.6782 5 18.4992 5C18.3202 5 18.1485 5.07024 18.0219 5.19526C17.8953 5.32029 17.8242 5.48986 17.8242 5.66667V7.01156C17.2257 7 16.5543 7 15.7992 7H12.1992C11.4441 7 10.7727 7 10.1742 7.01156V5.66667Z" fill="url(#paint0_linear_493_27)"/>
<path fill-rule="evenodd" clip-rule="evenodd" d="M5 14.1111C5 13.3653 5 12.7022 5.0117 12.1111H22.9883C23 12.7022 23 13.3653 23 14.1111V15.8889C23 19.2409 23 20.9173 21.9452 21.9582C20.8904 22.9991 19.1939 23 15.8 23H12.2C8.8061 23 7.1087 23 6.0548 21.9582C5.0009 20.9164 5 19.2409 5 15.8889V14.1111ZM18.5 15.8889C18.7387 15.8889 18.9676 15.7952 19.1364 15.6285C19.3052 15.4618 19.4 15.2357 19.4 15C19.4 14.7643 19.3052 14.5382 19.1364 14.3715C18.9676 14.2048 18.7387 14.1111 18.5 14.1111C18.2613 14.1111 18.0324 14.2048 17.8636 14.3715C17.6948 14.5382 17.6 14.7643 17.6 15C17.6 15.2357 17.6948 15.4618 17.8636 15.6285C18.0324 15.7952 18.2613 15.8889 18.5 15.8889ZM18.5 19.4444C18.7387 19.4444 18.9676 19.3508 19.1364 19.1841C19.3052 19.0174 19.4 18.7913 19.4 18.5556C19.4 18.3198 19.3052 18.0937 19.1364 17.927C18.9676 17.7603 18.7387 17.6667 18.5 17.6667C18.2613 17.6667 18.0324 17.7603 17.8636 17.927C17.6948 18.0937 17.6 18.3198 17.6 18.5556C17.6 18.7913 17.6948 19.0174 17.8636 19.1841C18.0324 19.3508 18.2613 19.4444 18.5 19.4444ZM14.9 15C14.9 15.2357 14.8052 15.4618 14.6364 15.6285C14.4676 15.7952 14.2387 15.8889 14 15.8889C13.7613 15.8889 13.5324 15.7952 13.3636 15.6285C13.1948 15.4618 13.1 15.2357 13.1 15C13.1 14.7643 13.1948 14.5382 13.3636 14.3715C13.5324 14.2048 13.7613 14.1111 14 14.1111C14.2387 14.1111 14.4676 14.2048 14.6364 14.3715C14.8052 14.5382 14.9 14.7643 14.9 15ZM14.9 18.5556C14.9 18.7913 14.8052 19.0174 14.6364 19.1841C14.4676 19.3508 14.2387 19.4444 14 19.4444C13.7613 19.4444 13.5324 19.3508 13.3636 19.1841C13.1948 19.0174 13.1 18.7913 13.1 18.5556C13.1 18.3198 13.1948 18.0937 13.3636 17.927C13.5324 17.7603 13.7613 17.6667 14 17.6667C14.2387 17.6667 14.4676 17.7603 14.6364 17.927C14.8052 18.0937 14.9 18.3198 14.9 18.5556ZM9.5 15.8889C9.7387 15.8889 9.96761 15.7952 10.1364 15.6285C10.3052 15.4618 10.4 15.2357 10.4 15C10.4 14.7643 10.3052 14.5382 10.1364 14.3715C9.96761 14.2048 9.7387 14.1111 9.5 14.1111C9.26131 14.1111 9.03239 14.2048 8.8636 14.3715C8.69482 14.5382 8.6 14.7643 8.6 15C8.6 15.2357 8.69482 15.4618 8.8636 15.6285C9.03239 15.7952 9.26131 15.8889 9.5 15.8889ZM9.5 19.4444C9.7387 19.4444 9.96761 19.3508 10.1364 19.1841C10.3052 19.0174 10.4 18.7913 10.4 18.5556C10.4 18.3198 10.3052 18.0937 10.1364 17.927C9.96761 17.7603 9.7387 17.6667 9.5 17.6667C9.26131 17.6667 9.03239 17.7603 8.8636 17.927C8.69482 18.0937 8.6 18.3198 8.6 18.5556C8.6 18.7913 8.69482 19.0174 8.8636 19.1841C9.03239 19.3508 9.26131 19.4444 9.5 19.4444Z" fill="url(#paint1_linear_493_27)"/>
<defs>
<linearGradient id="paint0_linear_493_27" x1="9.06875" y1="-68.1455" x2="39.7887" y2="-61.3114" gradientUnits="userSpaceOnUse">
<stop stop-color="#DED6F9"/>
<stop offset="1" stop-color="#5E3ADD"/>
</linearGradient>
<linearGradient id="paint1_linear_493_27" x1="9.06875" y1="-68.1455" x2="39.7887" y2="-61.3114" gradientUnits="userSpaceOnUse">
<stop stop-color="#DED6F9"/>
<stop offset="1" stop-color="#5E3ADD"/>
</linearGradient>
</defs>
</svg>
