<svg width="28" height="28" viewBox="0 0 28 28" fill="none" xmlns="http://www.w3.org/2000/svg">
<rect width="28" height="28" rx="5.64034" transform="matrix(-1 0 0 1 28 0)" fill="white"/>
<path d="M13.0004 19.9999V15.0005H8.00007C7.44787 15.0005 7.00016 14.5526 7 14.0005C7 13.4482 7.44777 13.0004 8.00007 13.0004H13.0004V8.00007C13.0004 7.44777 13.4482 7 14.0005 7C14.5526 7.00016 15.0005 7.44787 15.0005 8.00007V13.0004H19.9999L20.1024 13.005C20.6067 13.0562 21 13.4827 21 14.0005C20.9998 14.5181 20.6066 14.9438 20.1024 14.995L19.9999 15.0005H15.0005V19.9999C15.0005 20.5521 14.5526 20.9998 14.0005 21C13.4482 21 13.0004 20.5522 13.0004 19.9999Z" fill="url(#paint0_linear_504_24)"/>
<defs>
<linearGradient id="paint0_linear_504_24" x1="10.1646" y1="-49.8909" x2="34.0579" y2="-44.5756" gradientUnits="userSpaceOnUse">
<stop stop-color="#DED6F9"/>
<stop offset="1" stop-color="#5E3ADD"/>
</linearGradient>
</defs>
</svg>
