<svg width="138" height="65" viewBox="0 0 138 65" fill="none" xmlns="http://www.w3.org/2000/svg">
<path d="M32.6655 0C36.9262 0 40.8319 0.630302 44.3825 1.89091C47.9726 3.11212 51.2075 4.72727 54.0875 6.73636C57.0069 8.70606 59.5712 10.7939 61.7804 13C63.2007 14.3 64.5026 15.6394 65.6861 17.0182C66.9091 18.397 68.0532 19.7364 69.1183 21.0364C70.0652 19.7364 71.0712 18.4561 72.1364 17.1955C73.2015 15.9348 74.5626 14.5364 76.2195 13C79.5334 9.69091 83.6166 6.69697 88.4691 4.01818C93.3611 1.33939 99.0617 0 105.571 0C111.568 0 117.012 1.45758 121.904 4.37273C126.835 7.24848 130.741 11.1485 133.621 16.0727C136.54 20.9576 138 26.3939 138 32.3818C138 36.9121 137.152 41.1667 135.455 45.1455C133.798 49.0848 131.491 52.5515 128.532 55.5455C125.573 58.5 122.121 60.8242 118.176 62.5182C114.27 64.1727 110.069 65 105.571 65C101.232 65 97.247 64.3894 93.6175 63.1682C90.0274 61.9076 86.7727 60.3121 83.8533 58.3818C80.9734 56.4121 78.4288 54.3636 76.2195 52.2364C74.7993 50.8182 73.4974 49.4197 72.3139 48.0409C71.1304 46.6227 70.0652 45.2636 69.1183 43.9636C68.0532 45.2636 66.9091 46.6227 65.6861 48.0409C64.5026 49.4197 63.2007 50.8182 61.7804 52.2364C59.5712 54.3636 57.0069 56.4121 54.0875 58.3818C51.2075 60.3121 47.9726 61.9076 44.3825 63.1682C40.8319 64.3894 36.9262 65 32.6655 65C26.59 65 21.0866 63.5424 16.1552 60.6273C11.2238 57.7121 7.29846 53.7924 4.37907 48.8682C1.45969 43.9439 0 38.4485 0 32.3818C0 27.8909 0.828473 23.6955 2.48542 19.7955C4.18182 15.8561 6.50943 12.4091 9.46827 9.45455C12.4666 6.5 15.9382 4.19545 19.8834 2.54091C23.8679 0.846969 28.1286 0 32.6655 0ZM13.4923 32.3818C13.4923 35.9273 14.3405 39.1576 16.0369 42.0727C17.7727 44.9485 20.0806 47.253 22.9605 48.9864C25.8799 50.6803 29.1149 51.5273 32.6655 51.5273C36.5712 51.5273 40.1415 50.6409 43.3765 48.8682C46.6115 47.0955 49.59 44.9091 52.3122 42.3091C54.0875 40.5364 55.6458 38.8227 56.9871 37.1682C58.3285 35.5136 59.5317 33.9182 60.5969 32.3818C59.5317 30.9636 58.3482 29.447 57.0463 27.8318C55.7839 26.1773 54.2058 24.4636 52.3122 22.6909C49.7084 20.0909 46.7496 17.9045 43.4357 16.1318C40.1612 14.3591 36.5712 13.4727 32.6655 13.4727C29.1149 13.4727 25.8799 14.3394 22.9605 16.0727C20.0806 17.7667 17.7727 20.0515 16.0369 22.9273C14.3405 25.7636 13.4923 28.9152 13.4923 32.3818ZM124.508 32.3818C124.508 28.9152 123.64 25.7636 121.904 22.9273C120.208 20.0515 117.919 17.7667 115.039 16.0727C112.199 14.3394 109.043 13.4727 105.571 13.4727C102.889 13.4727 100.364 13.8864 97.9966 14.7136C95.6295 15.5015 93.4202 16.6045 91.3688 18.0227C89.3173 19.4015 87.4237 20.9576 85.6878 22.6909C83.5575 24.7 81.7822 26.65 80.3619 28.5409C78.9811 30.3924 77.9949 31.6727 77.4031 32.3818C78.4683 33.9182 79.6715 35.5136 81.0129 37.1682C82.3542 38.8227 83.9125 40.5364 85.6878 42.3091C88.4099 44.9091 91.3885 47.0955 94.6235 48.8682C97.8979 50.6409 101.547 51.5273 105.571 51.5273C109.043 51.5273 112.199 50.6803 115.039 48.9864C117.919 47.253 120.208 44.9485 121.904 42.0727C123.64 39.1576 124.508 35.9273 124.508 32.3818Z" fill="white"/>
</svg>
