<svg width="31" height="27" viewBox="0 0 31 27" fill="none" xmlns="http://www.w3.org/2000/svg">
<path d="M14.5588 26V12.3281L10.8469 16C10.4543 16.3881 9.82114 16.3845 9.43281 15.9922C9.04446 15.5995 9.04794 14.9655 9.44063 14.5771L14.8557 9.22166L14.9318 9.15427C15.3231 8.83831 15.8967 8.86066 16.2619 9.22166L21.6779 14.5771C22.0706 14.9655 22.0741 15.5995 21.6857 15.9922C21.2975 16.3846 20.6644 16.3879 20.2717 16L16.5588 12.3271V26C16.5588 26.5523 16.1111 27 15.5588 27C15.0066 26.9998 14.5588 26.5522 14.5588 26ZM12.4318 1.28416C14.3945 0.186228 16.6731 -0.224563 18.8996 0.117163C21.1262 0.458919 23.1737 1.53355 24.7092 3.1699C26.0915 4.64307 26.9829 6.49465 27.2785 8.47556C28.2633 8.87158 29.129 9.52249 29.7795 10.3681C30.5705 11.3965 31 12.6543 31.0002 13.9492L30.9943 14.2431C30.8717 17.1669 28.9196 19.6907 25.8029 19.8506L25.4875 19.8594L25.385 19.8535C24.8809 19.8022 24.4877 19.3769 24.4875 18.8594C24.4875 18.3071 24.9352 17.8594 25.4875 17.8594L25.6799 17.8545C27.6529 17.7568 29 16.1576 29.0002 13.9502L28.9875 13.6318C28.9263 12.8927 28.6526 12.1824 28.1945 11.5869C27.671 10.9063 26.9343 10.413 26.0969 10.1836C25.6909 10.0724 25.3982 9.7184 25.3645 9.2988C25.2217 7.52373 24.4775 5.84596 23.2502 4.53806C22.0227 3.2301 20.3829 2.368 18.5959 2.09373C16.8089 1.81951 14.981 2.14963 13.4084 3.02927C11.8358 3.90899 10.6113 5.28654 9.93086 6.9365C9.7385 7.40284 9.22891 7.65269 8.74238 7.51951C7.38046 7.14614 5.92415 7.32326 4.69551 8.01072C3.46712 8.69823 2.56784 9.83887 2.19258 11.1777C1.81749 12.5162 1.99516 13.9479 2.6877 15.1582C3.33729 16.2932 4.39142 17.1476 5.64278 17.5576L5.89473 17.6338L5.99238 17.666C6.46503 17.8487 6.73157 18.3631 6.59492 18.8623C6.458 19.3617 5.96597 19.669 5.46602 19.5849L5.36641 19.5625L5.01973 19.459C3.30251 18.8963 1.84942 17.7207 0.951369 16.1513C-0.00671321 14.4771 -0.253275 12.4932 0.266798 10.6377C0.786796 8.78247 2.02962 7.21057 3.71797 6.2656C5.15601 5.46075 6.81834 5.16725 8.43379 5.41404C9.32593 3.6832 10.7145 2.24486 12.4318 1.28416Z" fill="white"/>
</svg>
